<svg viewBox="0 0 32 32" version="1.1" xmlns="http://www.w3.org/2000/svg" xmlns:xlink="http://www.w3.org/1999/xlink">
    <g id="Bold" stroke="none" stroke-width="1" fill="none" fill-rule="evenodd">
        <rect id="Rectangle" x="8" y="8" width="16" height="16"></rect>
        <path d="M17.2512019,14.5036058 C17.7672301,14.5036058 18.2538038,14.6017618 18.7109375,14.7980769 C19.1680712,14.994392 19.5663044,15.2622179 19.905649,15.6015625 C20.2449937,15.9409071 20.5128195,16.3377381 20.7091346,16.7920673 C20.9054497,17.2463965 21.0036058,17.7315679 21.0036058,18.2475962 C21.0036058,18.7636244 20.9054497,19.250198 20.7091346,19.7073317 C20.5128195,20.1644654 20.2449937,20.5626986 19.905649,20.9020433 C19.5663044,21.2413879 19.1680712,21.5092138 18.7109375,21.7055288 C18.2538038,21.9018439 17.7672301,22 17.2512019,22 L11,22 L11,8 L17.2512019,8 C17.6999221,8 18.120591,8.085536 18.5132212,8.25661058 C18.9058513,8.42768515 19.2493976,8.66045526 19.5438702,8.95492788 C19.8383428,9.24940051 20.0711129,9.59294675 20.2421875,9.98557692 C20.4132621,10.3782071 20.4987981,10.798876 20.4987981,11.2475962 C20.4987981,11.6963163 20.4146643,12.1183874 20.2463942,12.5138221 C20.0781242,12.9092568 19.8467563,13.2542053 19.5522837,13.5486779 C19.257811,13.8431505 18.9128626,14.0759206 18.5174279,14.2469952 C18.1219932,14.4180698 17.6999221,14.5036058 17.2512019,14.5036058 Z M15.5012019,10.0024038 L14.2307692,10.0024038 L14.2307692,13.9987981 L15.5012019,13.9987981 C15.776043,13.9987981 16.0354555,13.9455134 16.2794471,13.8389423 C16.5234387,13.7323713 16.7351754,13.5893438 16.9146635,13.4098558 C17.0941515,13.2303677 17.237179,13.018631 17.34375,12.7746394 C17.450321,12.5306478 17.5036058,12.2712353 17.5036058,11.9963942 C17.5036058,11.7215531 17.450321,11.4635429 17.34375,11.2223558 C17.237179,10.9811687 17.0941515,10.769432 16.9146635,10.5871394 C16.7351754,10.4048468 16.5234387,10.2618194 16.2794471,10.1580529 C16.0354555,10.0542863 15.776043,10.0024038 15.5012019,10.0024038 Z M15.9975962,19.9975962 C16.2724373,19.9975962 16.5318497,19.9457137 16.7758413,19.8419471 C17.019833,19.7381806 17.2315696,19.5951532 17.4110577,19.4128606 C17.5905458,19.230568 17.7335732,19.0188313 17.8401442,18.7776442 C17.9467153,18.5364571 18,18.2784469 18,18.0036058 C18,17.7287647 17.9481175,17.4693522 17.844351,17.2253606 C17.7405844,16.981369 17.597557,16.7682301 17.4152644,16.5859375 C17.2329718,16.4036449 17.019833,16.2606175 16.7758413,16.156851 C16.5318497,16.0530844 16.2724373,16.0012019 15.9975962,16.0012019 L14.2307692,16.0012019 L14.2307692,19.9975962 L15.9975962,19.9975962 Z" id="î£" fill="#666666" fill-rule="nonzero"></path>
    </g>
</svg>